<svg width="663" height="128" viewBox="0 0 663 128" fill="none" xmlns="http://www.w3.org/2000/svg">
<path d="M610.682 127.26C601.082 127.26 592.442 125.16 584.762 120.96C577.082 116.64 571.022 110.58 566.582 102.78C562.262 94.98 560.102 85.98 560.102 75.78C560.102 65.58 562.322 56.58 566.762 48.78C571.322 40.98 577.502 34.98 585.302 30.78C593.102 26.46 601.802 24.3 611.402 24.3C621.002 24.3 629.702 26.46 637.502 30.78C645.302 34.98 651.422 40.98 655.862 48.78C660.422 56.58 662.702 65.58 662.702 75.78C662.702 85.98 660.362 94.98 655.682 102.78C651.122 110.58 644.882 116.64 636.962 120.96C629.162 125.16 620.402 127.26 610.682 127.26ZM610.682 105.3C615.242 105.3 619.502 104.22 623.462 102.06C627.542 99.78 630.782 96.42 633.182 91.98C635.582 87.54 636.782 82.14 636.782 75.78C636.782 66.3 634.262 59.04 629.222 54C624.302 48.84 618.242 46.26 611.042 46.26C603.842 46.26 597.782 48.84 592.862 54C588.062 59.04 585.662 66.3 585.662 75.78C585.662 85.26 588.002 92.58 592.682 97.74C597.482 102.78 603.482 105.3 610.682 105.3Z" fill="#1C1630"/>
<path d="M504.897 127.26C495.297 127.26 486.657 125.16 478.977 120.96C471.297 116.64 465.237 110.58 460.797 102.78C456.477 94.98 454.317 85.98 454.317 75.78C454.317 65.58 456.537 56.58 460.977 48.78C465.537 40.98 471.717 34.98 479.517 30.78C487.317 26.46 496.017 24.3 505.617 24.3C515.217 24.3 523.917 26.46 531.717 30.78C539.517 34.98 545.637 40.98 550.077 48.78C554.637 56.58 556.917 65.58 556.917 75.78C556.917 85.98 554.577 94.98 549.897 102.78C545.337 110.58 539.097 116.64 531.177 120.96C523.377 125.16 514.617 127.26 504.897 127.26ZM504.897 105.3C509.457 105.3 513.717 104.22 517.677 102.06C521.757 99.78 524.997 96.42 527.397 91.98C529.797 87.54 530.997 82.14 530.997 75.78C530.997 66.3 528.477 59.04 523.437 54C518.517 48.84 512.457 46.26 505.257 46.26C498.057 46.26 491.997 48.84 487.077 54C482.277 59.04 479.877 66.3 479.877 75.78C479.877 85.26 482.217 92.58 486.897 97.74C491.697 102.78 497.697 105.3 504.897 105.3Z" fill="#1C1630"/>
<path d="M384.514 0C397.714 0 409.294 2.58 419.254 7.74C429.334 12.9 437.074 20.28 442.474 29.88C447.994 39.36 450.754 50.4 450.754 63C450.754 75.6 447.994 86.64 442.474 96.12C437.074 105.48 429.334 112.74 419.254 117.9C409.294 123.06 397.714 125.64 384.514 125.64H340.594V0H384.514ZM383.614 104.22C396.814 104.22 407.014 100.62 414.214 93.42C421.414 86.22 425.014 76.08 425.014 63C425.014 49.92 421.414 39.72 414.214 32.4C407.014 24.96 396.814 21.24 383.614 21.24H365.794V104.22H383.614Z" fill="#1C1630"/>
<path d="M270.089 127.26C260.489 127.26 251.849 125.16 244.169 120.96C236.489 116.64 230.429 110.58 225.989 102.78C221.669 94.98 219.509 85.98 219.509 75.78C219.509 65.58 221.729 56.58 226.169 48.78C230.729 40.98 236.909 34.98 244.709 30.78C252.509 26.46 261.209 24.3 270.809 24.3C280.409 24.3 289.109 26.46 296.909 30.78C304.709 34.98 310.829 40.98 315.269 48.78C319.829 56.58 322.109 65.58 322.109 75.78C322.109 85.98 319.769 94.98 315.089 102.78C310.529 110.58 304.289 116.64 296.369 120.96C288.569 125.16 279.809 127.26 270.089 127.26ZM270.089 105.3C274.649 105.3 278.909 104.22 282.869 102.06C286.949 99.78 290.189 96.42 292.589 91.98C294.989 87.54 296.189 82.14 296.189 75.78C296.189 66.3 293.669 59.04 288.629 54C283.709 48.84 277.649 46.26 270.449 46.26C263.249 46.26 257.189 48.84 252.269 54C247.469 59.04 245.069 66.3 245.069 75.78C245.069 85.26 247.409 92.58 252.089 97.74C256.889 102.78 262.889 105.3 270.089 105.3Z" fill="#1C1630"/>
<path d="M164.304 127.26C154.704 127.26 146.064 125.16 138.384 120.96C130.704 116.64 124.644 110.58 120.204 102.78C115.884 94.98 113.724 85.98 113.724 75.78C113.724 65.58 115.944 56.58 120.384 48.78C124.944 40.98 131.124 34.98 138.924 30.78C146.724 26.46 155.424 24.3 165.024 24.3C174.624 24.3 183.324 26.46 191.124 30.78C198.924 34.98 205.044 40.98 209.484 48.78C214.044 56.58 216.324 65.58 216.324 75.78C216.324 85.98 213.984 94.98 209.304 102.78C204.744 110.58 198.504 116.64 190.584 120.96C182.784 125.16 174.024 127.26 164.304 127.26ZM164.304 105.3C168.864 105.3 173.124 104.22 177.084 102.06C181.164 99.78 184.404 96.42 186.804 91.98C189.204 87.54 190.404 82.14 190.404 75.78C190.404 66.3 187.884 59.04 182.844 54C177.924 48.84 171.864 46.26 164.664 46.26C157.464 46.26 151.404 48.84 146.484 54C141.684 59.04 139.284 66.3 139.284 75.78C139.284 85.26 141.624 92.58 146.304 97.74C151.104 102.78 157.104 105.3 164.304 105.3Z" fill="#1C1630"/>
<path d="M43.9201 0C57.1201 0 68.7001 2.58 78.6601 7.74C88.7401 12.9 96.4801 20.28 101.88 29.88C107.4 39.36 110.16 50.4 110.16 63C110.16 75.6 107.4 86.64 101.88 96.12C96.4801 105.48 88.7401 112.74 78.6601 117.9C68.7001 123.06 57.1201 125.64 43.9201 125.64H0.00012207V0H43.9201ZM43.0201 104.22C56.2201 104.22 66.4201 100.62 73.6201 93.42C80.8201 86.22 84.4201 76.08 84.4201 63C84.4201 49.92 80.8201 39.72 73.6201 32.4C66.4201 24.96 56.2201 21.24 43.0201 21.24H25.2001V104.22H43.0201Z" fill="#1C1630"/>
</svg>
