<svg width="200" height="200" viewBox="0 0 200 200" fill="none" xmlns="http://www.w3.org/2000/svg">
<circle cx="16" cy="16" r="16" transform="matrix(1 0 0 -1 40 64)" fill="#305CEE"/>
<circle cx="16" cy="16" r="16" transform="matrix(1 0 0 -1 40 169)" fill="#305CEE"/>
<circle cx="20" cy="20" r="20" transform="matrix(1 0 0 -1 88 68)" fill="#1240D9"/>
<circle cx="16" cy="16" r="16" transform="matrix(1 0 0 -1 140 94)" fill="#0A2FA9"/>
<circle cx="16" cy="16" r="16" transform="matrix(1 0 0 -1 92 116)" fill="#0A2FA9"/>
<circle cx="16" cy="16" r="16" transform="matrix(1 0 0 -1 140 138)" fill="#0A2FA9"/>
<circle cx="20" cy="20" r="20" transform="matrix(1 0 0 -1 88 173)" fill="#1240D9"/>
<circle cx="20" cy="20" r="20" transform="matrix(1 0 0 -1 36 120)" fill="#305CEE"/>
</svg>
